<?xml version="1.0" standalone="no"?><!DOCTYPE svg PUBLIC "-//W3C//DTD SVG 1.1//EN" "http://www.w3.org/Graphics/SVG/1.1/DTD/svg11.dtd"><svg t="1642187399674" class="icon" viewBox="0 0 1024 1024" version="1.1" xmlns="http://www.w3.org/2000/svg" p-id="5933" xmlns:xlink="http://www.w3.org/1999/xlink" width="200" height="200"><defs><style type="text/css"></style></defs><path d="M780.521412 656.820706s0-0.752941 0 0c0-2.258824 0.752941-4.517647 0.752941-6.776471 2.258824-15.811765 3.764706-32.376471 3.011765-48.188235 0-6.776471-0.752941-13.552941-1.505883-20.329412-6.023529-55.717647-29.364706-109.176471-67.011764-152.094117 4.517647-4.517647 9.035294-9.035294 12.047058-14.305883 18.070588-27.105882 24.847059-57.223529 28.611765-86.588235s8.282353-59.482353-11.294118-92.611765c-8.282353-14.305882-20.329412-23.341176-35.388235-27.858823-2.258824-0.752941-4.517647-1.505882-7.529412-1.505883-20.329412-3.764706-42.917647 0-63.247058 7.529412 2.258824-4.517647 3.764706-8.282353 5.270588-12.8 4.517647-15.811765 0.752941-27.858824-3.764706-34.635294-4.517647-7.529412-14.305882-17.317647-33.129412-20.329412-8.282353-1.505882-16.564706-1.505882-21.835294-0.752941-38.4 2.258824-69.270588 15.811765-89.6 38.4-2.258824 3.011765-4.517647 5.270588-6.023529 8.282353-18.070588-16.564706-39.152941-31.623529-63.247059-36.141176-2.258824-0.752941-5.270588-0.752941-7.529412-0.752942-15.058824-1.505882-30.117647 3.011765-42.917647 13.552942-30.117647 24.094118-36.894118 53.458824-43.670588 82.070588v0.752941c-6.776471 28.611765-11.294118 59.482353-3.764706 91.105882 1.505882 8.282353 4.517647 15.811765 9.035294 22.588236-54.211765 30.117647-95.623529 76.047059-118.964706 131.764705v0.752942c-6.776471 15.811765-11.294118 31.623529-15.058823 48.188235-0.752941 1.505882-0.752941 3.764706-1.505883 6.023529-0.752941 3.011765-1.505882 6.776471-1.505882 9.788236-2.258824 16.564706-3.011765 33.129412-2.258824 49.694117 6.023529 129.505882 107.670588 241.694118 243.2 266.541177 117.458824 21.835294 234.164706-25.6 298.164706-119.717647 2.258824-1.505882 3.764706-3.764706 5.270588-5.270589 3.764706-6.023529 6.023529-11.294118 8.282353-15.811764 3.011765-6.776471 4.517647-10.541176 8.282353-14.305883s6.023529-8.282353 6.776471-12.8c0.752941-6.023529 3.011765-12.8 5.270588-19.57647 2.258824-6.776471 4.517647-14.305882 6.02353-21.835294 0.752941-5.270588 0.752941-9.788235 0.752941-12.047059z" fill="#FFFFFF" p-id="5934"></path><path d="M621.650824 194.748235c6.776471-22.588235-17.317647-27.105882-34.635295-25.6-27.105882 1.505882-54.964706 9.788235-73.035294 30.870589-10.541176 11.294118-7.529412 26.352941 0 38.4 5.270588 9.035294 10.541176 18.070588 15.058824 27.105882 1.505882 2.258824 3.764706 5.270588 6.023529 10.541176l-37.647059-6.77647-22.588235 121.97647s27.105882-8.282353 33.882353-22.588235c-0.752941 1.505882-3.011765 14.305882 9.035294 37.647059l3.011765 0.752941c5.270588-9.788235 17.317647-19.576471 19.57647-32.376471 0 0 12.047059 27.858824 21.835295 33.129412l22.588235-121.97647-36.894118-6.776471c15.811765-7.529412 30.870588-25.6 43.670588-39.152941 11.294118-12.8 25.6-28.611765 30.117648-45.176471z m-27.858824 9.788236c-9.035294 19.576471-27.105882 36.141176-43.670588 50.447058-3.011765-7.529412-8.282353-15.058824-9.788236-18.070588-3.764706-5.270588-6.776471-10.541176-8.282352-17.317647-1.505882-7.529412 9.035294-14.305882 14.305882-17.317647 6.023529-3.764706 13.552941-5.270588 20.329412-6.776471 9.788235-2.258824 34.635294-6.776471 27.105882 9.035295z" fill="#F1AC0A" p-id="5935"></path><path d="M757.180235 653.289412c-0.752941 3.011765 2.258824 6.776471 1.505883 9.788235-3.011765 14.305882-9.788235 28.611765-9.788236 42.164706-7.529412 10.541176-15.058824 23.341176-21.835294 34.635294h-1.505882c-0.752941 1.505882-3.011765 3.011765-3.764706 4.517647-56.470588 83.576471-163.388235 130.258824-274.823529 109.929412-127.247059-23.341176-218.352941-127.247059-223.62353-243.952941-0.752941-15.058824 0-30.117647 2.258824-45.176471 0.752941-3.011765 0.752941-6.023529 1.505882-9.035294 0-1.505882 0.752941-3.011765 0.752941-5.270588 3.011765-15.811765 7.529412-30.117647 13.552941-44.42353v-0.752941c39.152941-93.364706 135.529412-155.105882 243.2-155.858823 17.317647 0 35.388235 1.505882 53.458824 4.517647 12.8 2.258824 24.847059 5.270588 36.141176 9.035294 103.152941 33.129412 175.435294 120.470588 185.976471 220.611765 0.752941 6.023529 0.752941 12.047059 1.505882 18.823529 0.752941 14.305882-0.752941 29.364706-3.011764 43.670588-0.752941 2.258824-1.505882 4.517647-1.505883 6.776471z" fill="#D64544" p-id="5936"></path><path d="M481.603765 602.842353c-52.705882 56.470588-129.505882 70.776471-172.42353 30.870588-42.164706-39.152941-33.882353-117.458824 18.82353-173.929412 52.705882-56.470588 129.505882-70.776471 172.423529-30.870588 42.164706 39.152941 33.882353 117.458824-18.823529 173.929412z" fill="#FD6666" p-id="5937"></path><path d="M540.611765 330.541176c-7.529412 13.552941-18.823529 36.141176-29.364706 61.741177-27.858824 63.247059-58.729412 144.564706-58.729412 144.564706L438.964706 474.352941l-57.976471 20.329412c15.058824-41.411765 33.882353-75.294118 52.705883-102.4 39.905882-57.976471 78.305882-85.082353 78.305882-85.082353l28.611765 23.341176z" fill="#BC1E3D" p-id="5938"></path><path d="M540.611765 330.541176c-7.529412 13.552941-18.823529 36.141176-29.364706 61.741177-27.858824 6.023529-56.470588 3.764706-77.552941 0 39.905882-57.976471 78.305882-85.082353 78.305882-85.082353l28.611765 23.341176z" fill="#981831" p-id="5939"></path><path d="M533.082353 329.035294c3.011765 15.058824 4.517647 39.905882 6.023529 67.764706 3.011765 69.270588 3.011765 155.858824 3.011765 155.858824l34.635294-53.458824 46.682353 39.905882c0.752941-43.670588-5.270588-82.070588-12.8-114.447058-16.564706-67.764706-42.917647-107.670588-42.917647-107.670589l-34.635294 12.047059z" fill="#BC1E3D" p-id="5940"></path><path d="M533.082353 329.035294c3.011765 15.058824 4.517647 39.905882 6.023529 67.764706 24.094118 15.811765 51.2 23.341176 72.282353 27.858824-16.564706-67.764706-42.917647-107.670588-42.917647-107.670589l-35.388235 12.047059z" fill="#981831" p-id="5941"></path><path d="M534.964706 292.781176c0.752941-3.764706-7.529412-13.552941-9.788235-16.564705-8.282353-13.552941-17.317647-26.352941-27.105883-39.152942-18.823529-24.094118-48.941176-55.717647-81.317647-58.729411-9.788235-0.752941-18.070588 2.258824-25.6 8.282353-24.094118 18.823529-28.611765 41.411765-35.388235 69.270588-6.023529 26.352941-10.541176 53.458824-3.764706 79.811765 3.011765 12.047059 9.788235 24.094118 20.329412 30.870588 51.952941 35.388235 130.258824-10.541176 160.37647-47.435294l2.258824-26.352942z" fill="#BC1E3D" p-id="5942"></path><path d="M530.447059 307.087059s-99.388235-101.647059-116.705883-29.364706 82.070588 45.929412 127.247059 33.882353l-10.541176-4.517647z" fill="#981831" p-id="5943"></path><path d="M553.411765 296.139294c0.752941-3.764706 12.047059-9.788235 15.058823-12.047059 12.8-9.788235 25.6-18.823529 38.4-27.105882 26.352941-15.811765 65.505882-34.635294 97.129412-26.352941 9.035294 2.258824 15.811765 9.035294 21.082353 16.564706 15.811765 27.105882 12.047059 50.447059 8.282353 78.305882-3.764706 27.105882-9.035294 53.458824-24.847059 76.047059-6.776471 10.541176-17.317647 18.823529-30.117647 21.835294-60.235294 14.305882-117.458824-56.470588-132.517647-101.647059l7.529412-25.6z" fill="#BC1E3D" p-id="5944"></path><path d="M552.658824 311.198118s128.752941-59.482353 118.964705 14.305882-93.364706 13.552941-131.011764-13.552941l12.047059-0.752941z" fill="#981831" p-id="5945"></path><path d="M571.105882 317.628235c-3.764706 22.588235-21.082353 37.647059-37.647058 34.635294-16.564706-3.011765-26.352941-23.341176-22.588236-45.929411s21.082353-37.647059 37.647059-34.635294 27.105882 23.341176 22.588235 45.929411z" fill="#BC1E3D" p-id="5946"></path><path d="M364.830118 470.241882c-2.258824 12.8-15.058824 21.835294-27.858824 19.576471-12.8-2.258824-21.835294-15.058824-19.57647-27.858824 2.258824-12.8 15.058824-21.835294 27.858823-19.57647 12.8 2.258824 21.835294 14.305882 19.576471 27.858823zM498.853647 611.041882c-2.258824 12.8-15.058824 21.835294-27.858823 19.576471-12.8-2.258824-21.835294-15.058824-19.576471-27.858824 2.258824-12.8 15.058824-21.835294 27.858823-19.57647 13.552941 2.258824 21.835294 15.058824 19.576471 27.858823zM330.194824 657.724235c-2.258824 12.8-15.058824 21.835294-27.858824 19.576471-12.8-2.258824-21.835294-15.058824-19.576471-27.858824 2.258824-12.8 15.058824-21.835294 27.858824-19.57647 13.552941 3.011765 21.835294 15.058824 19.576471 27.858823zM457.441882 783.465412c-2.258824 12.8-15.058824 21.835294-27.858823 19.57647-12.8-2.258824-21.835294-15.058824-19.576471-27.858823 2.258824-12.8 15.058824-21.835294 27.858824-19.576471 13.552941 2.258824 22.588235 15.058824 19.57647 27.858824zM616.312471 769.159529c-2.258824 12.8-15.058824 21.835294-27.858824 19.576471s-21.835294-15.058824-19.576471-27.858824c2.258824-12.8 15.058824-21.835294 27.858824-19.57647 12.8 2.258824 21.835294 14.305882 19.576471 27.858823zM702.147765 536.500706c-2.258824 12.8-15.058824 21.835294-27.858824 19.57647-12.8-2.258824-21.835294-15.058824-19.57647-27.858823 2.258824-12.8 15.058824-21.835294 27.858823-19.576471 13.552941 2.258824 21.835294 15.058824 19.576471 27.858824zM720.218353 675.794824c-2.258824 12.8-15.058824 21.835294-27.858824 19.57647-12.8-2.258824-21.835294-15.058824-19.57647-27.858823 2.258824-12.8 15.058824-21.835294 27.858823-19.576471 13.552941 3.011765 22.588235 15.058824 19.576471 27.858824z" fill="#F8E8D7" p-id="5947"></path></svg>