<?xml version="1.0" standalone="no"?><!DOCTYPE svg PUBLIC "-//W3C//DTD SVG 1.1//EN" "http://www.w3.org/Graphics/SVG/1.1/DTD/svg11.dtd"><svg t="1642188033129" class="icon" viewBox="0 0 1242 1024" version="1.1" xmlns="http://www.w3.org/2000/svg" p-id="8787" width="58.21875" height="48" xmlns:xlink="http://www.w3.org/1999/xlink"><defs><style type="text/css"></style></defs><path d="M159.528538 99.223564l278.15252 206.573517-51.430015-121.858708-226.722505-84.714809z" fill="#E2761B" p-id="8788"></path><path d="M801.587376 99.223564l-275.889005 208.540177 48.94386-123.825368 226.945145-84.714809zM259.642665 578.049621l74.028052 113.509679-158.446006 43.600482-45.604248-154.586899 129.985095-2.523262z m571.296184 2.523262l-45.270287 154.586899-158.483113-43.600482 74.065159-113.509679 129.688241 2.523262z" fill="#E4761B" p-id="8789"></path><path d="M636.09108 386.281715l44.157083 66.829334-157.332802 6.976077 5.566019-169.095656 107.6097 95.327351z m-311.066246 0l109.019758-97.219798 3.636466 171.062316-157.110162-7.013184 44.453938-66.792228z m302.160615 305.277585l-94.473895-46.123743 81.634945-63.749471 12.83895 109.836108z m-198.743983-46.123743l-94.770749 46.123743 13.135805-109.836107 81.634944 63.712364z" fill="#E4761B" p-id="8790"></path><path d="M333.670717 691.5593l94.770749-46.123743-7.569786 61.745703 0.853457 25.974755-88.05442-41.596715z m293.514732 0l-88.054419 41.633822 0.556602-25.974755-6.976078-61.78281 94.473895 46.123743z" fill="#D7C1B3" p-id="8791"></path><path d="M537.720972 540.868614l78.814828-23.191745-55.623083-25.45526-23.191745 48.647005z m-114.32603 0l-23.191745-48.609899-55.88283 25.418154 79.074575 23.191745z" fill="#233447" p-id="8792"></path><path d="M627.148343 691.5593l-13.395553-113.509679 87.497818 2.523262-74.102265 110.949311z m-280.044967-113.509679l-13.432659 113.509679-74.065159-110.986417 87.497818-2.523262zM280.570896 453.073942l157.073055 7.050291-14.508756 80.744381-23.228853-48.609899-55.88283 25.418154-63.452616-64.56582z m335.964904 64.602927l-55.88283-25.45526-22.931998 48.647005-14.842718-80.781488 157.407016-6.976077-63.74947 64.56582z" fill="#CD6116" p-id="8793"></path><path d="M680.28527 453.073942l-65.975878 128.612144 2.226408-64.009217 63.74947-64.56582z m-336.261758 64.602927l2.78301 64.009217-66.235626-128.575037 63.452616 64.56582z m178.891849-57.552636l14.805611 80.744381-18.442077 95.327351-4.193067-125.495174 7.792426-50.613665z m-85.27141 0l7.569786 50.279704-3.339612 125.792028-18.73893-95.327351 14.508756-80.781488z" fill="#E4751F" p-id="8794"></path><path d="M423.135195 540.868614l18.701824 95.327351-13.395553 9.239592-81.634944-63.749471-2.78301-64.009217 79.111683 23.191745z m193.400605-23.191745l-2.226408 64.009217-81.634944 63.749471-13.395553-9.239592 18.442077-95.327351 78.814828-23.191745z" fill="#F6851B" p-id="8795"></path><path d="M421.725137 733.193122l-0.853457-25.974755 7.013184-6.159728h105.383292l6.419476 6.122621-0.556602 25.974755 88.054419-41.596715-30.761531 25.121299-62.339412 43.340734h-107.053098l-62.59916-43.340734-30.761531-25.121299 88.05442 41.633822z" fill="#C0AD9E" p-id="8796"></path><path d="M428.441466 645.435557l13.395553-9.239592h77.441876l13.395553 9.239592 7.013184 61.745703-6.456582-6.122621h-105.383292l-6.976078 6.122621 7.569786-61.745703z" fill="#161616" p-id="8797"></path><path d="M147.802791 319.22974l-23.748347-114.066282 35.474094-105.939894L428.478573 298.821004 325.024834 386.281715l-146.200764 42.747025-32.431337-37.737608 13.989261-10.055941-22.375396-20.408736 17.328872-13.432659-22.338289-17.032018 14.80561-11.169145zM836.83883 205.200565l-23.748348 114.029175 15.065358 11.169144-22.375396 17.069125 17.069125 13.395553-22.375397 20.408736 13.989261 10.055941-32.134482 37.737608-146.200765-42.747026-103.416632-87.497817 268.875822-199.59744 35.251454 105.939894z" fill="#763D16" p-id="8798" data-spm-anchor-id="a313x.7781069.0.i5" class="selected"></path><path d="M178.82407 429.065847l146.200764-42.747026-44.453938 66.792228 66.235626 128.575037-87.200964-1.113203H129.620463l49.203607-151.507036z m457.304116-42.784132l146.200765 42.784132 48.609898 151.507036h-129.688241l-86.941216 1.113203 65.975878-128.575037-44.157084-66.792228z m-198.484235 73.842518L428.478573 298.783897 385.954188 183.938373h188.688043l-41.930677 114.882631-9.796193 161.266122-3.339611 50.873413-0.296855 125.235426H441.837019l-0.556602-125.235426-3.636466-50.836306z" fill="#F6851B" p-id="8799"></path></svg>